<svg width="244" height="244" viewBox="0 0 244 244" fill="none" xmlns="http://www.w3.org/2000/svg">
<path d="M145.669 123.43C145.669 120.676 145.352 117.287 144.716 113.263H87.2109V134.232H121.682C121.365 136.773 120.491 139.421 119.061 142.174C117.632 144.928 115.646 147.734 113.104 150.594C110.563 153.453 107.041 155.809 102.54 157.663C98.0395 159.516 92.9297 160.443 87.2109 160.443C76.7266 160.443 67.7778 156.683 60.3646 149.164C52.9514 141.645 49.2448 132.59 49.2448 122C49.2448 111.41 52.9514 102.355 60.3646 94.8359C67.7778 87.3168 76.7266 83.5573 87.2109 83.5573C96.954 83.5573 105.056 86.6814 111.516 92.9297L128.036 76.8854C116.599 66.2951 102.99 61 87.2109 61C70.2665 61 55.8637 66.957 44.0026 78.8711C32.1415 90.7852 26.2109 105.161 26.2109 122C26.2109 138.839 32.1415 153.215 44.0026 165.129C55.8637 177.043 70.2665 183 87.2109 183C104.685 183 118.796 177.44 129.546 166.32C140.295 155.201 145.669 140.904 145.669 123.43ZM200.474 130.737H217.789V113.263H200.474V95.7891H183V113.263H165.526V130.737H183V148.211H200.474V130.737ZM244 45.75V198.25C244 210.852 239.526 221.628 230.577 230.577C221.628 239.526 210.852 244 198.25 244H45.75C33.1476 244 22.372 239.526 13.4232 230.577C4.47439 221.628 0 210.852 0 198.25V45.75C0 33.1476 4.47439 22.372 13.4232 13.4232C22.372 4.47439 33.1476 0 45.75 0H198.25C210.852 0 221.628 4.47439 230.577 13.4232C239.526 22.372 244 33.1476 244 45.75Z" fill="#F44336"/>
</svg>
